<?xml version="1.0" standalone="no"?>
<!DOCTYPE svg PUBLIC "-//W3C//DTD SVG 20010904//EN"
 "http://www.w3.org/TR/2001/REC-SVG-20010904/DTD/svg10.dtd">
<svg version="1.0" xmlns="http://www.w3.org/2000/svg"
 width="256.000000pt" height="256.000000pt" viewBox="0 0 256.000000 256.000000"
 preserveAspectRatio="xMidYMid meet">
<metadata>
Created by potrace 1.14, written by Peter Selinger 2001-2017
</metadata>
<g transform="translate(0.000000,256.000000) scale(0.100000,-0.100000)"
fill="#000000" stroke="none">
<path d="M978 2163 c-13 -16 -35 -123 -54 -273 -3 -25 -16 -102 -28 -171 -20
-118 -20 -177 2 -180 4 0 15 -2 25 -4 38 -7 52 26 75 176 12 79 23 153 26 164
2 11 9 62 16 113 l13 92 283 0 c156 0 284 -3 284 -6 0 -3 -5 -14 -10 -25 -10
-18 -24 -19 -255 -19 -189 0 -245 -3 -246 -12 0 -7 -2 -20 -4 -28 -1 -8 -6
-35 -9 -60 -4 -25 -11 -70 -16 -100 -5 -30 -12 -73 -15 -95 -3 -22 -10 -65
-15 -95 -5 -30 -12 -75 -15 -100 -4 -25 -13 -88 -22 -140 -8 -52 -17 -111 -19
-130 -10 -78 -18 -95 -50 -95 -18 0 -28 5 -26 13 1 7 5 36 9 65 14 106 5 130
-47 125 -31 -4 -46 -34 -55 -113 -3 -32 -9 -63 -11 -67 -10 -16 -6 -100 5
-111 8 -8 65 -12 169 -14 86 0 162 -2 168 -2 7 -1 1 -37 -16 -98 -33 -115 -84
-299 -140 -505 -33 -124 -38 -151 -28 -173 12 -27 44 -33 70 -12 8 6 91 131
183 277 93 146 187 294 210 330 286 441 324 506 317 532 -7 30 -35 35 -179 34
-123 -1 -132 0 -127 17 3 10 60 129 126 265 167 343 181 375 180 395 -2 47 -2
47 -392 47 -337 0 -368 -1 -382 -17z m630 -812 c2 0 -4 -11 -12 -23 -13 -18
-26 -22 -76 -23 -62 -1 -71 6 -45 35 11 12 30 16 73 15 31 -2 58 -3 60 -4z
m-278 -331 c-1 -16 -50 -181 -60 -200 -13 -25 -108 -172 -116 -180 -3 -2 -3 2
0 10 3 8 26 92 51 185 25 94 48 175 49 180 4 10 76 15 76 5z"/>
<path d="M878 1498 c-28 -23 -29 -56 -2 -77 30 -24 62 -17 75 17 19 49 -33 91
-73 60z"/>
</g>
</svg>
